<svg aria-hidden="true" style="position:absolute;width:0;height:0;overflow:hidden" xmlns="http://www.w3.org/2000/svg"><defs><symbol id="telephone" viewBox="0 0 32 32"><path d="M31.931 24.794c-.09-.273-.666-.674-1.727-1.204-.287-.167-.697-.394-1.227-.682s-1.012-.553-1.443-.796c-.432-.242-.837-.477-1.216-.704-.061-.045-.25-.178-.568-.398s-.587-.383-.807-.489c-.22-.106-.436-.159-.648-.159-.303 0-.681.216-1.136.648s-.871.901-1.25 1.409-.78.977-1.204 1.409-.773.648-1.046.648c-.137 0-.307-.038-.512-.113s-.36-.141-.466-.193c-.106-.053-.287-.159-.545-.319s-.402-.246-.432-.262c-2.076-1.152-3.856-2.47-5.341-3.954S9.56 16.37 8.409 14.294c-.015-.03-.102-.174-.261-.432s-.265-.439-.318-.546c-.053-.106-.117-.261-.193-.466s-.114-.375-.114-.511c0-.273.216-.621.648-1.046s.902-.826 1.409-1.204c.508-.379.977-.795 1.409-1.25s.648-.833.648-1.136c0-.212-.053-.428-.159-.648s-.269-.489-.489-.807c-.22-.318-.352-.507-.398-.568-.227-.378-.462-.784-.704-1.216s-.508-.913-.796-1.443c-.288-.53-.515-.939-.682-1.227C7.879.734 7.478.158 7.205.067c-.106-.045-.265-.068-.477-.068-.409 0-.943.076-1.602.227s-1.178.31-1.557.477c-.758.318-1.561 1.242-2.409 2.772C.387 4.899.001 6.308.001 7.702c0 .409.026.806.08 1.193s.148.822.284 1.307c.136.485.246.845.329 1.079s.238.655.466 1.261c.227.606.364.977.409 1.113.53 1.485 1.159 2.811 1.886 3.977 1.196 1.939 2.829 3.943 4.897 6.012s4.072 3.701 6.011 4.898c1.167.727 2.493 1.356 3.977 1.886.136.045.507.181 1.113.409s1.027.383 1.261.466c.235.083.595.193 1.079.33.485.137.921.231 1.307.285.387.052.784.079 1.193.079 1.394 0 2.803-.387 4.227-1.159 1.53-.848 2.454-1.651 2.772-2.41.167-.378.326-.897.477-1.557s.227-1.193.227-1.602c0-.213-.022-.372-.068-.479z"/></symbol><symbol id="viber" viewBox="0 0 32 32"><path fill="#665ca7" style="fill:var(--color1, #665ca7)" d="M0 0h32v32H0V0z"/><path stroke-linecap="round" stroke-width=".625" d="M16.813 11.625c.019-.001.041-.001.064-.001 1.036 0 1.875.839 1.875 1.875 0 .022 0 .045-.001.067v-.003m-2.376-3.625h.004c2.209 0 4 1.791 4 4 0 .066-.002.132-.005.197v-.009m-4.561-5.813c.042-.001.091-.002.141-.002 3.348 0 6.063 2.714 6.063 6.063 0 .155-.006.308-.017.459l.001-.02"/><path fill="#fff" style="fill:var(--color2, #fff)" d="M5.938 14.5c0 4.875.875 5.938 2.25 7.375.438.438 2 1.188 2.375 1.188v4.313c0 .25.25.438.5.188l3.313-3.938 1.625.063c9 0 10.063-3.5 10.063-9.188s-1.063-9.188-10.063-9.188-10.063 3.5-10.063 9.188zm-1.875 0c0-7.875 3.438-11.063 11.938-11.063S27.939 6.625 27.939 14.5s-3.438 11.063-11.938 11.063c-.625 0-1.125 0-2-.125l-2.375 2.688c-.438.5-1.75.688-1.75-.813v-2.625c-.375 0-1.25-.375-2.438-1.125-1.188-.813-3.375-2.75-3.375-9.063zM18 17.125q.625-.813 1.5-.25l2.25 1.688q.5.625-.438 1.75t-1.75.938q-3.313-.75-6.375-3.75t-3.813-6.5q0-1.25 1.563-2.125.813-.563 1.375.313l1.563 2.188q.375.75-.438 1.375c-2.438.938 3.188 7 4.563 4.375z"/></symbol></defs></svg>